<svg xmlns="http://www.w3.org/2000/svg" xmlns:xlink="http://www.w3.org/1999/xlink" id="Layer_1" data-name="Layer 1" viewBox="0 0 534.28 315.91"><defs><style>.cls-1{fill:#262d62;}.cls-2{fill:#fff;}.cls-3{fill:url(#linear-gradient);}.cls-4{fill:url(#linear-gradient-2);}.cls-5{fill:url(#linear-gradient-3);}</style><linearGradient id="linear-gradient" x1="328.05" y1="101.15" x2="279.79" y2="17.57" gradientUnits="userSpaceOnUse"><stop offset="0.07" stop-color="#dbc171"/><stop offset="0.52" stop-color="#eee6be"/><stop offset="0.92" stop-color="#dbc171"/></linearGradient><linearGradient id="linear-gradient-2" x1="288.19" y1="103.35" x2="247.56" y2="32.98" xlink:href="#linear-gradient"/><linearGradient id="linear-gradient-3" x1="248.43" y1="105.49" x2="215.23" y2="47.99" xlink:href="#linear-gradient"/></defs><path class="cls-1" d="M240.74,403.51a7.57,7.57,0,0,0-3.53-2.44,12.77,12.77,0,0,0-4.21-.79,11.2,11.2,0,0,0-2.4.28,8.92,8.92,0,0,0-2.33.86,5,5,0,0,0-1.79,1.54,4,4,0,0,0-.68,2.33,3.88,3.88,0,0,0,1.64,3.36,15.57,15.57,0,0,0,4.15,2q2.5.81,5.38,1.64a22.53,22.53,0,0,1,5.39,2.33,12.8,12.8,0,0,1,4.14,4.05,12.29,12.29,0,0,1,1.65,6.79,15.69,15.69,0,0,1-1.51,7.06,14.37,14.37,0,0,1-4.08,5,17.25,17.25,0,0,1-6,2.95,26.3,26.3,0,0,1-7.17,1,25.94,25.94,0,0,1-8.77-1.44,22,22,0,0,1-7.55-4.66l7.61-8.37a11.07,11.07,0,0,0,4.15,3.4,11.87,11.87,0,0,0,5.18,1.2,12,12,0,0,0,2.64-.31,8.82,8.82,0,0,0,2.4-.93,5.07,5.07,0,0,0,1.71-1.57,3.91,3.91,0,0,0,.65-2.27,4.11,4.11,0,0,0-1.68-3.46,15.78,15.78,0,0,0-4.21-2.16c-1.69-.59-3.52-1.19-5.49-1.78a24.29,24.29,0,0,1-5.48-2.4,13.14,13.14,0,0,1-4.22-4,11.35,11.35,0,0,1-1.68-6.51,14.29,14.29,0,0,1,5.66-11.79,17.7,17.7,0,0,1,5.93-3,24,24,0,0,1,6.92-1,27.19,27.19,0,0,1,8,1.17,18.42,18.42,0,0,1,6.92,3.9Z" transform="translate(-158.05 -125.51)"/><path class="cls-1" d="M289.42,404.26a10.53,10.53,0,0,0-3.87-2.95,13,13,0,0,0-5.32-1,13.32,13.32,0,0,0-10,4.43,15.11,15.11,0,0,0-2.95,5,19,19,0,0,0,0,12.51,15.57,15.57,0,0,0,2.92,4.94,13.21,13.21,0,0,0,4.35,3.25,12.54,12.54,0,0,0,5.38,1.17,12.1,12.1,0,0,0,5.83-1.37,11.73,11.73,0,0,0,4.18-3.84l8.91,6.65a18.5,18.5,0,0,1-7.81,6.37,24.24,24.24,0,0,1-9.74,2.06,29.89,29.89,0,0,1-10.49-1.78,24,24,0,0,1-8.29-5.11,23.12,23.12,0,0,1-5.45-8.06,29.4,29.4,0,0,1,0-21.11,23.12,23.12,0,0,1,5.45-8.06,24.1,24.1,0,0,1,8.29-5.11,30.12,30.12,0,0,1,10.49-1.78,26,26,0,0,1,4.29.38,23.07,23.07,0,0,1,4.39,1.2,19.85,19.85,0,0,1,4.14,2.19,16.67,16.67,0,0,1,3.57,3.36Z" transform="translate(-158.05 -125.51)"/><path class="cls-1" d="M303.61,415.92a27.26,27.26,0,0,1,2-10.56A23.12,23.12,0,0,1,311,397.3a24.1,24.1,0,0,1,8.29-5.11,31.8,31.8,0,0,1,21,0,24.15,24.15,0,0,1,8.3,5.11,23.12,23.12,0,0,1,5.45,8.06,29.54,29.54,0,0,1,0,21.11,23.12,23.12,0,0,1-5.45,8.06,24,24,0,0,1-8.3,5.11,31.8,31.8,0,0,1-21,0,24,24,0,0,1-8.29-5.11,23.12,23.12,0,0,1-5.45-8.06A27.24,27.24,0,0,1,303.61,415.92Zm11.11,0a17.78,17.78,0,0,0,1.06,6.27,14.52,14.52,0,0,0,3.05,4.94,14.08,14.08,0,0,0,4.77,3.25,17,17,0,0,0,12.41,0,13.94,13.94,0,0,0,4.76-3.25,14.36,14.36,0,0,0,3.05-4.94,18.82,18.82,0,0,0,0-12.51,14.22,14.22,0,0,0-3.05-5,13.83,13.83,0,0,0-4.76-3.26,17,17,0,0,0-12.41,0,14,14,0,0,0-4.77,3.26,14.36,14.36,0,0,0-3.05,5A17.85,17.85,0,0,0,314.72,415.92Z" transform="translate(-158.05 -125.51)"/><path class="cls-1" d="M374.23,401.11H360.38v-9.46h38.39v9.46H384.92v39.08H374.23Z" transform="translate(-158.05 -125.51)"/><path class="cls-1" d="M415.86,401.11H402v-9.46H440.4v9.46H426.55v39.08H415.86Z" transform="translate(-158.05 -125.51)"/><path class="cls-1" d="M468,391.65h18.1a45.39,45.39,0,0,1,6.35.44,17.42,17.42,0,0,1,5.72,1.78,11,11,0,0,1,4.11,3.74,11.48,11.48,0,0,1,1.58,6.38,10.2,10.2,0,0,1-2.3,6.82,12.67,12.67,0,0,1-6.06,3.87v.14a13.66,13.66,0,0,1,4.35,1.34,11.61,11.61,0,0,1,3.36,2.53,10.74,10.74,0,0,1,2.16,3.6,12.73,12.73,0,0,1,.75,4.39,11.71,11.71,0,0,1-1.64,6.41,13.06,13.06,0,0,1-4.25,4.15,18.73,18.73,0,0,1-5.87,2.26,31.15,31.15,0,0,1-6.47.69H468Zm10.7,19.4h7.75a10.48,10.48,0,0,0,2.43-.28,6.7,6.7,0,0,0,2.16-.89,4.66,4.66,0,0,0,1.54-1.64,4.93,4.93,0,0,0,.59-2.47,4.41,4.41,0,0,0-.66-2.5,4.46,4.46,0,0,0-1.68-1.55,8.09,8.09,0,0,0-2.33-.78,14,14,0,0,0-2.53-.24h-7.27Zm0,20.09h9.6a11.41,11.41,0,0,0,2.5-.28,6.61,6.61,0,0,0,2.3-1,5.51,5.51,0,0,0,1.68-1.78,5.18,5.18,0,0,0,.65-2.67,4.29,4.29,0,0,0-.86-2.78,5.35,5.35,0,0,0-2.16-1.61,11.08,11.08,0,0,0-2.81-.76,22.08,22.08,0,0,0-2.81-.2h-8.09Z" transform="translate(-158.05 -125.51)"/><path class="cls-1" d="M514.7,391.65h10.7v38.66h19.81v9.88H514.7Z" transform="translate(-158.05 -125.51)"/><path class="cls-1" d="M606.57,391.65h10.7V411.8l18.85-20.15h14l-21.6,22.55,23.45,26H637l-19.74-23v23h-10.7Z" transform="translate(-158.05 -125.51)"/><path class="cls-1" d="M658.13,391.65h33v9.87H668.82v9.05h21v9.87h-21v9.87h23.52v9.88H658.13Z" transform="translate(-158.05 -125.51)"/><polygon class="cls-1" points="420.08 266.14 411.2 266.14 390.12 314.9 401.96 314.9 406.03 304.56 409.51 295.48 409.4 295.48 415.32 280.32 421.32 295.48 408.09 303.69 424.97 304.56 429.17 314.9 441.29 314.9 420.08 266.14"/><polygon class="cls-1" points="29.96 266.14 21.08 266.14 0 314.9 11.85 314.9 15.91 304.56 19.39 295.48 19.28 295.48 25.21 280.32 31.2 295.48 17.98 303.69 34.85 304.56 39.05 314.9 51.18 314.9 29.96 266.14"/><polygon class="cls-1" points="19.28 295.48 19.39 295.48 25.2 280.32 19.28 295.48"/><path class="cls-1" d="M492.52,312.47a22,22,0,0,0-4.42-7.35,23.84,23.84,0,0,0-6.87-5.2,28.5,28.5,0,0,0-8.9-2.74v-.27a25.71,25.71,0,0,0,12.4-7.94q4.71-5.52,4.71-13.94c0-5.43-1.09-9.76-3.22-13a22.57,22.57,0,0,0-8.42-7.64,35.39,35.39,0,0,0-11.71-3.65,95,95,0,0,0-13-.9h-37v31.72L428,308h26.53a44.66,44.66,0,0,1,5.76.41A22.57,22.57,0,0,1,466,310a11.17,11.17,0,0,1,4.42,3.29,8.78,8.78,0,0,1,1.76,5.68,10.35,10.35,0,0,1-1.34,5.46,11,11,0,0,1-3.44,3.65,13.38,13.38,0,0,1-4.69,2,23.86,23.86,0,0,1-5.13.57H427.66l-35.14-80.75H374.45l-42.92,99.26h24.12l8.27-21L371,309.54h-.22l12.06-30.86,12.21,30.86-26.93,16.71L402.49,328l8.54,21h45.72a63.85,63.85,0,0,0,13.26-1.4A38.16,38.16,0,0,0,482,343a26.67,26.67,0,0,0,8.69-8.48,23.91,23.91,0,0,0,3.37-13.11A25.84,25.84,0,0,0,492.52,312.47Z" transform="translate(-158.05 -125.51)"/><path class="cls-2" d="M438,288.51h15.85a21.75,21.75,0,0,0,5-.57,13.6,13.6,0,0,0,4.42-1.82,9.39,9.39,0,0,0,3.16-3.37,10,10,0,0,0,1.2-5.05,9.06,9.06,0,0,0-1.34-5.11,9.16,9.16,0,0,0-3.44-3.16,16.42,16.42,0,0,0-4.75-1.61,27.62,27.62,0,0,0-5.19-.48H438Z" transform="translate(-158.05 -125.51)"/><polygon class="cls-3" points="287.65 108.94 314.54 108.94 314.54 0 287.65 13.03 287.65 108.94"/><polygon class="cls-4" points="251.61 108.94 278.5 108.94 278.5 17.61 251.61 30.64 251.61 108.94"/><polygon class="cls-5" points="215.56 108.94 242.45 108.94 242.45 34.77 215.56 47.8 215.56 108.94"/></svg>